# xmcd
#
# Track frame offsets: 
#        150
#        13172
#        25925
#        36813
#        48668
#        57621
#        69356
#        80560
#        93022
#        104480
#        118102
#        132361
#        143455
#        156320
#
# Disc length: 2293 seconds
#
# Revision: 0
# Processed by: cddbd v1.5.2PL0 Copyright (c) Steve Scherf et al.
# Submitted via: ExactAudioCopy v0.95a5
#
DISCID=bf08f30e
DTITLE=Duffy Power - Leapers And Sleepers (1962-1967) CD2
DYEAR=2002
DGENRE=Blues
TTITLE0=Love's Gonna Go [Jamle Power single 1965]
TTITLE1=There's No Living Without Your Loving [Jamle Power single 1965
TTITLE1=]
TTITLE2=She Don't Know [Jamle Power session 1965]
TTITLE3=I'm So Glad You're Mine [Marquis Music session autumn 1965]
TTITLE4=Dollar Mamie [Marquis Music session autumn 1965]
TTITLE5=Little Boy Blue [Marquis Music session mid 1966]
TTITLE6=Little Girl [Marquis Music session mid 1966]
TTITLE7=Mary Open The Door [Marquis Music session mid 1966]
TTITLE8=Hound Dog [Marquis Music session november 1966]
TTITLE9=Rags And Old Iron [Marquis Music session november 1966]
TTITLE10=Just Stay Blue [Marquis Music session 1967]
TTITLE11=Davy O' Brien (Leave That Baby Alone) [Parlophone R 5631 Jule
TTITLE11=1967]
TTITLE12=July Tree [Parlophone R 5631 Jule 1967]
TTITLE13=Take It Smoothly [EMI session Jule 1967]
EXTD=
EXTT0=
EXTT1=
EXTT2=
EXTT3=
EXTT4=
EXTT5=
EXTT6=
EXTT7=
EXTT8=
EXTT9=
EXTT10=
EXTT11=
EXTT12=
EXTT13=
PLAYORDER=
